<?xml version="1.0" standalone="no"?>
<svg xmlns:xlink="http://www.w3.org/1999/xlink" xmlns="http://www.w3.org/2000/svg" id="svg" xml:space="preserve" viewBox="0 0 419.477 182.298">
<path id="TheCurationDatabase" d="M268.927 247.44h-2.702v1.51h6.978v-1.51h-2.718v-9.697h-1.558zM274.954 248.949h1.558v-4.895h4.117v4.895h1.556v-11.205h-1.556v4.943h-4.117v-4.943h-1.558zM284.654 248.949h6.231v-1.51h-4.673v-3.37h3.401v-1.382h-3.4v-3.434h4.672v-1.51h-6.23zM302.13 241.415v3.895c0 1.54-.955 2.336-2.178 2.336-1.097 0-2.178-.7-2.178-2.32v-3.895c0-1.541.954-2.336 2.178-2.336 1.096 0 2.177.699 2.177 2.32m-5.912.064v3.767c0 2.288 1.525 3.894 3.735 3.894 2.193 0 3.75-1.606 3.75-3.894v-3.767c0-2.29-1.557-3.878-3.75-3.878-2.21 0-3.735 1.588-3.735 3.878M309.064 242.195c1.336 0 2.368.714 2.368 2.399v.414c0 1.938-1.144 2.431-2.368 2.431h-1.652v-5.245zm-3.21 6.754h3.289c2.195 0 3.832-1.399 3.832-3.942v-.429c0-2.544-1.637-3.878-3.832-3.878h-1.731v-2.957h-1.558zM314.886 248.949h6.231v-1.51h-4.673v-3.37h3.401v-1.382h-3.4v-3.434h4.672v-1.51h-6.23zM323.187 248.949h1.447l4.514-8.233v8.233h1.573v-11.205h-1.462l-4.514 8.2v-8.2h-1.558zM336.323 241.303h1.542c0-1.684.89-2.272 2.226-2.272 1.239 0 2.162.588 2.162 1.764 0 1.176-1.081 1.527-2.305 1.876-1.606.477-3.465.954-3.465 3.322 0 2.018 1.303 3.162 3.528 3.162 2.242 0 3.672-1.224 3.672-3.639h-1.542c0 1.541-.811 2.193-2.13 2.193-1.256 0-1.987-.604-1.987-1.716 0-1.256 1.192-1.59 2.495-1.955 1.574-.446 3.29-.954 3.29-3.212 0-2.096-1.43-3.274-3.718-3.274-2.29 0-3.768 1.24-3.768 3.751M351.443 241.415v3.895c0 1.54-.954 2.336-2.177 2.336-1.097 0-2.178-.7-2.178-2.32v-3.895c0-1.541.954-2.336 2.178-2.336 1.096 0 2.177.699 2.177 2.32m-5.912.064v3.767c0 2.288 1.526 3.894 3.735 3.894 2.194 0 3.752-1.606 3.752-3.894v-3.767c0-2.29-1.558-3.878-3.752-3.878-2.209 0-3.735 1.588-3.735 3.878M355.01 241.479v7.47h1.557v-7.518c0-1.637 1.065-2.336 2.177-2.336 1.208 0 2.193.795 2.193 2.336v7.518h1.558v-7.47c0-2.29-1.558-3.878-3.75-3.878-2.194 0-3.736 1.589-3.736 3.878M368.016 242.465c1.336 0 2.368.666 2.368 2.272v.382c0 1.749-1.017 2.32-2.368 2.32h-1.652v-4.974zm-3.21 6.484h3.386c2.272 0 3.735-1.398 3.735-3.91v-.317c0-1.861-.97-3.021-2.432-3.42l2.383-3.558h-1.795l-2.067 3.227h-1.652v-3.227h-1.558zM373.52 241.479v3.799c0 2.289 1.527 3.878 3.735 3.878 2.289 0 3.752-1.701 3.752-4.037v-.096h-1.557v.112c0 1.318-.701 2.51-2.195 2.51-1.096 0-2.177-.698-2.177-2.32v-3.894c0-1.541.953-2.336 2.177-2.336 1.637 0 2.195 1.382 2.195 2.606v.112h1.557v-.112c0-2.384-1.415-4.116-3.752-4.116-2.208 0-3.735 1.605-3.735 3.894M382.998 248.949h6.231v-1.51h-4.673v-3.37h3.401v-1.382h-3.4v-3.434h4.672v-1.51H383zM394.56 241.479v3.799c0 2.289 1.526 3.878 3.734 3.878 2.29 0 3.752-1.701 3.752-4.037v-.096h-1.557v.112c0 1.318-.7 2.51-2.195 2.51-1.096 0-2.177-.698-2.177-2.32v-3.894c0-1.541.953-2.336 2.177-2.336 1.637 0 2.195 1.382 2.195 2.606v.112h1.557v-.112c0-2.384-1.415-4.116-3.752-4.116-2.208 0-3.735 1.605-3.735 3.894M403.88 241.479v7.47h1.557v-7.518c0-1.637 1.065-2.336 2.177-2.336 1.208 0 2.193.795 2.193 2.336v7.518h1.558v-7.47c0-2.29-1.558-3.878-3.75-3.878-2.194 0-3.736 1.589-3.736 3.878M416.886 242.465c1.334 0 2.368.666 2.368 2.272v.382c0 1.749-1.017 2.32-2.368 2.32h-1.654v-4.974zm-3.212 6.484h3.386c2.274 0 3.735-1.398 3.735-3.91v-.317c0-1.861-.97-3.021-2.432-3.42l2.385-3.558h-1.796l-2.066 3.227h-1.654v-3.227h-1.558zM427.874 241.621l-1.67 5.611-1.716-5.61zm-2.542 7.327h1.747l3.577-11.205h-1.637l-.763 2.527h-4.165l-.778-2.527h-1.622zM433.22 247.44h-2.703v1.51h6.978v-1.51h-2.718v-9.697h-1.558zM439.247 248.949h1.558v-11.205h-1.558zM448.865 241.415v3.895c0 1.54-.954 2.336-2.177 2.336-1.097 0-2.178-.7-2.178-2.32v-3.895c0-1.541.954-2.336 2.178-2.336 1.096 0 2.177.699 2.177 2.32m-5.912.064v3.767c0 2.288 1.526 3.894 3.735 3.894 2.194 0 3.752-1.606 3.752-3.894v-3.767c0-2.29-1.558-3.878-3.752-3.878-2.21 0-3.735 1.588-3.735 3.878M452.589 248.949h1.447l4.514-8.233v8.233h1.573v-11.205h-1.462l-4.514 8.2v-8.2h-1.558zM469.587 239.238c1.351 0 2.368.699 2.368 3.036v2.178c0 2.304-1 2.988-2.368 2.988h-1.859v-8.202zm-3.417 9.71h3.593c2.208 0 3.75-1.414 3.75-4.147v-2.893c0-2.718-1.542-4.164-3.75-4.164h-3.593zM480.511 241.621l-1.67 5.611-1.716-5.61zm-2.542 7.327h1.747l3.576-11.205h-1.636l-.763 2.527h-4.165l-.778-2.527h-1.622zM485.857 247.44h-2.702v1.51h6.978v-1.51h-2.718v-9.697h-1.558zM495.858 241.621l-1.67 5.611-1.716-5.61zm-2.544 7.327h1.75l3.577-11.205H497l-.762 2.527h-4.163l-.78-2.527h-1.621zM503.492 239.238c1.24 0 2.162.382 2.162 1.7v.207c0 1.176-.857 1.621-2.002 1.621h-2.003v-3.528zm.287 4.768c1.08 0 1.765.509 1.765 1.62v.225c0 1.27-.907 1.589-2.162 1.589h-1.733v-3.434zm-3.688 4.943h3.339c2.208 0 3.67-.857 3.67-2.94v-.158c0-1.32-.587-2.083-1.605-2.465 1.08-.38 1.7-1.16 1.7-2.478v-.128c0-2.114-1.445-3.036-3.655-3.036h-3.45zM514.354 241.621l-1.67 5.611-1.716-5.61zm-2.544 7.327h1.749l3.576-11.205h-1.638l-.763 2.527h-4.163l-.78-2.527h-1.621zM517.823 241.303h1.542c0-1.684.89-2.272 2.224-2.272 1.241 0 2.162.588 2.162 1.764 0 1.176-1.08 1.527-2.305 1.876-1.604.477-3.465.954-3.465 3.322 0 2.018 1.303 3.162 3.53 3.162 2.24 0 3.67-1.224 3.67-3.639h-1.54c0 1.541-.81 2.193-2.13 2.193-1.256 0-1.987-.604-1.987-1.716 0-1.256 1.191-1.59 2.495-1.955 1.574-.446 3.29-.954 3.29-3.212 0-2.096-1.43-3.274-3.72-3.274-2.287 0-3.766 1.24-3.766 3.751M527.35 248.949h6.23v-1.51h-4.672v-3.37h3.4v-1.382h-3.4v-3.434h4.673v-1.51h-6.231z" style="fill: rgb(111, 116, 121); fill-opacity: 1; fill-rule: nonzero; stroke: none;" transform="matrix(1.33333 0 0 -1.33333 -354.05 499.035)"/><g>
<path id="OSSelot" d="M292.789 306.168c6.215.334 12.478-3.233 14.997-8.99 3.595-7.608 1.558-18.073-5.905-22.583-6.55-3.945-16.056-2.848-20.96 3.238-8.076 11.43-2.281 27.304 11.868 28.335m-.094 11.185c-9.542-.013-18.853-5.409-23.448-13.798-6.312-10.956-4.468-26.062 4.763-34.834 9.352-9.286 25.497-10.14 35.932-2.198 7.942 5.86 12.012 16.158 10.894 25.882-1.97 14.817-13.583 24.68-28.141 24.948M333.948 302.641c0 2.331 1.282 4.26 4.173 4.26h15.18c.494 0 .893.4.893.894v8.663a.893.893 0 0 1-.892.894h-17.908c-6.347 0-13.983-4.506-13.983-14.95 0-14.139 22.333-20.09 22.333-26.033 0-2.414-1.601-4.016-3.694-4.016h-17.581a.893.893 0 0 1-.894-.893v-9.463c0-.493.399-.892.894-.892h17.907c12.373 0 15.91 9.155 15.91 17.029 0 11.738-22.338 19.448-22.338 24.507M370.414 302.641c0 2.331 1.282 4.26 4.173 4.26h15.181c.493 0 .892.4.892.894v8.663a.893.893 0 0 1-.892.894H371.86c-6.347 0-13.983-4.506-13.983-14.95 0-14.139 22.333-20.09 22.333-26.033 0-2.414-1.6-4.016-3.694-4.016h-3.53a.893.893 0 0 1-.894-.893v-9.463c0-.493.4-.892.893-.892h3.857c12.373 0 15.911 9.155 15.911 17.029 0 11.738-22.339 19.448-22.339 24.507M368.72 272.429h-9.432a.892.892 0 0 1-.892-.892v-9.54c0-.493.399-.892.892-.892h9.433c.493 0 .892.399.892.892v9.54a.892.892 0 0 1-.892.892M423.061 287.121c.546 0 .951.481.9 1.024-.162 1.692-.85 3.169-2.064 4.432-1.457 1.51-3.33 2.266-5.623 2.266-1.4 0-2.63-.226-3.693-.672-1.064-.448-1.973-1.022-2.728-1.72a7.556 7.556 0 0 1-1.762-2.434 8.026 8.026 0 0 1-.573-1.777c-.114-.574.296-1.119.882-1.119zm10.815-17.39c.421-.309.505-.92.165-1.315-1.91-2.216-4.252-3.953-7.026-5.213-3.077-1.399-6.266-2.098-9.567-2.098-3.134 0-6.084.503-8.854 1.511-2.769 1.006-5.175 2.446-7.217 4.322-2.043 1.874-3.65 4.125-4.826 6.756-1.174 2.629-1.762 5.566-1.762 8.811s.588 6.181 1.762 8.812c1.175 2.63 2.783 4.881 4.826 6.756 2.042 1.874 4.448 3.315 7.217 4.322 2.77 1.007 5.72 1.511 8.854 1.511 2.91 0 5.552-.504 7.931-1.511 2.378-1.007 4.392-2.448 6.043-4.322 1.65-1.875 2.923-4.126 3.82-6.756.893-2.631 1.341-5.567 1.341-8.812v-3.043a.9.9 0 0 0-.9-.901h-27.135c-.619 0-1.044-.61-.858-1.2.585-1.852 1.571-3.368 2.961-4.548 1.678-1.428 3.747-2.141 6.21-2.141 2.07 0 3.82.462 5.245 1.385a13.864 13.864 0 0 1 3.203 2.879c.306.374.84.462 1.23.176zM441.529 317.351h10.785a.901.901 0 0 0 .9-.902v-53.436a.901.901 0 0 0-.9-.901h-10.785a.902.902 0 0 0-.902.902v53.436c0 .498.404.902.902.902M469.513 282.505c0-3.078.88-5.568 2.645-7.469 1.762-1.903 4.237-2.854 7.426-2.854 3.19 0 5.665.951 7.428 2.854 1.762 1.901 2.643 4.391 2.643 7.47 0 3.075-.881 5.565-2.643 7.468-1.763 1.901-4.238 2.854-7.428 2.854-3.19 0-5.664-.953-7.426-2.854-1.764-1.903-2.645-4.393-2.645-7.469m-12.59 0c0 3.244.589 6.181 1.763 8.812 1.177 2.63 2.784 4.88 4.826 6.756 2.042 1.874 4.449 3.315 7.218 4.322 2.77 1.006 5.72 1.51 8.854 1.51 3.134 0 6.086-.504 8.854-1.51 2.77-1.007 5.175-2.448 7.218-4.322 2.042-1.876 3.65-4.127 4.826-6.756 1.175-2.63 1.762-5.568 1.762-8.812 0-3.246-.587-6.182-1.762-8.812-1.175-2.63-2.784-4.882-4.826-6.756-2.043-1.875-4.448-3.315-7.218-4.322-2.768-1.008-5.72-1.51-8.854-1.51-3.133 0-6.084.502-8.854 1.51-2.77 1.007-5.176 2.447-7.218 4.322-2.042 1.874-3.65 4.125-4.826 6.756-1.174 2.63-1.762 5.566-1.762 8.812M532.477 292.828h-9.275a.901.901 0 0 1-.901-.902v-12.693c0-1.12.054-2.141.168-3.064.11-.924.363-1.72.755-2.392.39-.671.992-1.19 1.805-1.552.81-.364 1.887-.546 3.23-.546.672 0 1.553.07 2.643.21.493.063.932.163 1.316.3.572.205 1.16-.248 1.16-.855v-8.31a.916.916 0 0 0-.625-.873 19.11 19.11 0 0 0-3.74-.795 40.22 40.22 0 0 0-4.446-.251c-2.127 0-4.086.224-5.875.67-1.791.449-3.358 1.162-4.7 2.14-1.343.979-2.392 2.252-3.148 3.819-.755 1.567-1.132 3.47-1.132 5.707v18.485a.902.902 0 0 1-.902.902h-6.253a.901.901 0 0 0-.901.902v8.268a.9.9 0 0 0 .9.9h6.254c.498 0 .902.405.902.903v12.65c0 .498.404.902.902.902h10.785a.902.902 0 0 0 .902-.902V303.8c0-.498.403-.902.9-.902h9.276a.901.901 0 0 0 .902-.901v-8.268a.902.902 0 0 0-.902-.902" style="fill: rgb(21, 101, 175); fill-opacity: 1; fill-rule: nonzero; stroke-width: 0px; stroke: rgb(128, 128, 128);" transform="matrix(1.33333 0 0 -1.33333 -354.05 499.035)"/></g>
<path id="Ozelot" d="M565.256 293.965c6.198-6.47 7.866-15.51 1.145-22.365-2.798-3.177-6.99-4.374-10.463-6.596-7.71-4.703-17.958-13.928-15.006-23.896 1.814-4.383 6.875-2.102 9.188.727 2.756 2.999 4.03 6.995 5.738 10.652 2.668 6 9.63 8.21 14.51 11.634 11.14 6.81 9.216 22.349 3.196 32.109-13.96 22.473-45.708 38.606-71.023 44.235-7.854 1.826-16.236.647-24.161-.337-9.818-.956-21.22-2.983-31.041-2.79-8.87.12-14.462 8.155-17.715 15.479-1.09 2.06-2.664 3.91-4.428 5.393-4.846 4.103-11.728 5.18-17.933 6.228-.105-.005-.902.177-1.197.37a6.508 6.508 0 0 0-.86.553c-.963.733-1.716 1.512-2.443 2.264-2.276 2.246-6.642 4.306-9.731 3.61-.642-.242-.795-.411-.881-.993-.086-.694.343-1.86.73-2.707 1.078-2.557-.122-4.022-2.366-4.927-8.74-3.821-6.973-14.273-9.433-22.096-.575-2.542 1.03-6.131 3.264-8.026 2.229-2.097 5.596-3.2 8.428-1.732.582.449 2.667 1.39 3.996 1.564 10.43 1.253 13.738-11.876 14.7-19.965l-.315-.042c-.41 2.537-.975 5.05-1.812 7.467-1.894 6.438-8.618 14.906-15.726 9.679-1.548-1.14-3.741-1.25-5.614-.847-5.398 1.273-9.945 6.818-8.947 12.516 1.639 5.76.87 12.72 4.1 18.303 1.613 3.069 4.676 4.79 7.452 6.319-.032-.02-.066-.244-.052-.143a2.479 2.479 0 0 1-.201.888c-2.513 4.745-.007 8.543 5.5 7.653 3.423-.553 6.478-1.973 9.067-4.401.858-.848 1.629-1.655 2.549-2.19.162-.05-.13.012.277-.057l1.534-.232c8.668-1.084 18.193-4.085 22.877-12.208 7.1-15.041 11.72-15.696 27.48-13.903 9.574.76 21.256 2.5 30.836 3.022 29.095 1.586 83.933-28.644 89.169-58.805 1.604-8.537-.495-17.87-8.418-22.522-3.5-2.342-7.36-3.936-10.492-6.41-5.058-3.85-5.305-11.031-9.761-15.415-2.882-3.32-8.735-5.638-10.99-.323-2.203 6.272 1.76 12.748 5.826 17.217 2.849 3.053 6.215 5.563 9.783 7.665 3.509 2.228 7.69 3.29 10.42 6.38 6.573 6.615 5.05 15.379-.994 21.789l.238.212" style="fill: rgb(111, 116, 121); fill-opacity: 1; fill-rule: nonzero; stroke: none;" transform="matrix(1.33333 0 0 -1.33333 -354.05 499.035)"/></svg>

